# xmcd
#
# Track frame offsets:
#	150
#	5763
#	20706
#	36079
#	52225
#	65259
#	78195
#	91882
#	96547
#	109279
#	111961
#	115137
#	125097
#	144066
#	162265
#	179784
#	188337
#	198052
#	213705
#	228803
#	234547
#	253461
#	260607
#	272917
#	276061
#
# Disc length: 3767 seconds
#
# Revision: 0
# Processed by: cddbd v1.5.2PL0 Copyright (c) Steve Scherf et al.
# Submitted via: Collectorz.com Music Collector 1.0
#
DISCID=710eb519
DTITLE=Johnny Cash/Carl Perkins - Live At Free Trade Hall, Manchester, UK, 1973-09-03, #1
DYEAR=2005
DGENRE=70s  - country
TTITLE0=706 Union [by The Tennessee Three]
TTITLE1=Carl Perkins introduction > CC Rider
TTITLE2=Matchbox
TTITLE3=Green, Green Grass Of Home
TTITLE4=One More Loser Goin' Home
TTITLE5=Boppin' The Blues
TTITLE6=Me And Jesus
TTITLE7=Carl talks...
TTITLE8=Blue Suede Shoes > 
TTITLE9=Carl outro
TTITLE10=Johnny Cash introduction...
TTITLE11=Big River
TTITLE12=Sunday Morning Coming Down
TTITLE13=City Of New Orleans
TTITLE14=The Ballad Of Barbara
TTITLE15=I Still Miss Someone > 
TTITLE16=Me And Bobby McGhee
TTITLE17=These Hands
TTITLE18=A Boy Named Sue
TTITLE19=Johnny talks...
TTITLE20=Goin' To Memphis
TTITLE21=Five Feet High And Rising
TTITLE22=That Silver Haired Daddy Of Mine
TTITLE23=Johnny talks...
TTITLE24=Hey Porter [incomplete]
EXTD=
EXTT0=
EXTT1=
EXTT2=
EXTT3=
EXTT4=
EXTT5=
EXTT6=
EXTT7=
EXTT8=
EXTT9=
EXTT10=
EXTT11=
EXTT12=
EXTT13=
EXTT14=
EXTT15=
EXTT16=
EXTT17=
EXTT18=
EXTT19=
EXTT20=
EXTT21=
EXTT22=
EXTT23=
EXTT24=
PLAYORDER=
